<!-- icon666.com - MILLIONS vector ICONS FREE --><svg id="Capa_1" enable-background="new 0 0 512 512" viewBox="0 0 512 512" xmlns="http://www.w3.org/2000/svg"><g><g><g><circle cx="256" cy="226" fill="#bbf49b" r="218.5"></circle><path d="m256 7.5c-5.043 0-10.042.186-15 .522 113.676 7.709 203.5 102.347 203.5 217.978s-89.824 210.269-203.5 217.978c4.958.336 9.957.522 15 .522 120.674 0 218.5-97.826 218.5-218.5s-97.826-218.5-218.5-218.5z" fill="#9be69d"></path><circle cx="256" cy="226" fill="#fff" r="188.5"></circle><g><path d="m210.896 309.335c-8.023 0-15.566-3.124-21.239-8.797l-41.044-41.045c-7.038-7.037-7.038-18.448 0-25.485 7.037-7.037 18.448-7.037 25.485 0l36.798 36.796 127.003-127.003c7.037-7.037 18.448-7.037 25.485 0 7.038 7.037 7.038 18.448 0 25.485l-131.25 131.252c-5.672 5.672-13.215 8.797-21.238 8.797z" fill="#bbf49b"></path></g></g><g><path d="m494.5 504.5h-477c-5.523 0-10-4.477-10-10v-101.063c0-5.523 4.477-10 10-10h477c5.523 0 10 4.477 10 10v101.063c0 5.523-4.477 10-10 10z" fill="#c9f6b0"></path><path d="m494.5 383.438h-30c5.523 0 10 4.477 10 10v101.062c0 5.523-4.477 10-10 10h30c5.523 0 10-4.477 10-10v-101.062c0-5.523-4.477-10-10-10z" fill="#9be69d"></path></g></g><path d="m494.5 375.938h-69.405c36.613-41.215 56.905-94.777 56.905-149.938 0-125.519-101.669-226-226-226-125.3 0-226 101.427-226 226 0 55.483 20.231 108.705 56.905 149.938h-69.405c-9.649 0-17.5 7.851-17.5 17.5v101.062c0 9.649 7.851 17.5 17.5 17.5h323.668c4.142 0 7.5-3.357 7.5-7.5s-3.358-7.5-7.5-7.5h-323.668c-1.378 0-2.5-1.121-2.5-2.5v-101.062c0-1.379 1.122-2.5 2.5-2.5h477c1.378 0 2.5 1.121 2.5 2.5v101.062c0 1.379-1.122 2.5-2.5 2.5h-118.332c-4.142 0-7.5 3.357-7.5 7.5s3.358 7.5 7.5 7.5h118.332c9.649 0 17.5-7.851 17.5-17.5v-101.062c0-9.65-7.851-17.5-17.5-17.5zm-137.25 0h-202.5c-49.972-33.843-79.75-89.716-79.75-149.938 0-99.804 81.196-181 181-181s181 81.196 181 181c0 60.222-29.778 116.095-79.75 149.938zm47.177 0h-22.323c44.124-37.088 69.896-91.628 69.896-149.938 0-108.075-87.925-196-196-196s-196 87.925-196 196c0 58.31 25.772 112.85 69.896 149.938h-22.323c-40.367-39.932-62.573-93.051-62.573-149.938 0-116.346 94.654-211 211-211s211 94.654 211 211c0 56.887-22.206 110.006-62.573 149.938zm-14.383 80.486c0-6.717-3.016-12.739-7.76-16.795 1.822-3.012 2.89-6.528 2.89-10.297 0-11.017-8.963-19.979-19.979-19.979h-15.754c-4.142 0-7.5 3.357-7.5 7.5v54.234c-.021 4.089 3.445 7.5 7.533 7.5.001 0 14.481-.064 18.472-.064 12.185-.002 22.098-9.915 22.098-22.099zm-33.103-32.072h8.254c2.746 0 4.979 2.233 4.979 4.979s-2.234 4.979-4.979 4.979c-1.531 0-5.855.02-8.254.015zm11.005 39.169c-2.041 0-6.813.017-11.005.033v-14.22c2.534.126 8.521-.009 11.005-.009 3.914 0 7.098 3.185 7.098 7.099s-3.184 7.097-7.098 7.097zm-35.349-325.024-121.7 121.701-31.494-31.494c-4.82-4.819-11.229-7.475-18.046-7.475s-13.226 2.655-18.046 7.475-7.475 11.229-7.475 18.046 2.655 13.227 7.475 18.046l41.043 41.046c7.089 7.089 16.516 10.993 26.542 10.993s19.453-3.904 26.541-10.993l52.047-52.047c2.929-2.93 2.929-7.678 0-10.607-2.929-2.928-7.678-2.928-10.606 0l-52.047 52.048c-4.255 4.256-9.915 6.6-15.934 6.6-6.02 0-11.679-2.344-15.936-6.6l-41.043-41.046c-1.987-1.986-3.082-4.629-3.082-7.439s1.094-5.452 3.082-7.438c1.987-1.987 4.629-3.082 7.439-3.082s5.453 1.095 7.439 3.082l36.797 36.797c2.929 2.928 7.678 2.928 10.606 0l127.003-127.004c4.103-4.104 10.777-4.104 14.879 0 4.03 4.032 4.071 10.853 0 14.878l-54.52 54.52c-2.929 2.93-2.929 7.678 0 10.607 2.929 2.928 7.678 2.928 10.606 0l54.52-54.52c9.887-9.796 9.766-26.328 0-36.093-9.948-9.95-26.14-9.95-36.09-.001zm74.519 270.855c-4.142 0-7.5 3.357-7.5 7.5v54.189c0 3.654 2.634 6.776 6.236 7.393.542.093 14.067.142 20.297.107 4.142-.023 7.481-3.399 7.458-7.542-.023-4.128-3.376-7.458-7.499-7.458h-.043c-3.487.02-7.835.037-11.449.043v-46.732c0-4.143-3.358-7.5-7.5-7.5zm-347.193 0h-.011c-3.556.004-6.724 2.134-8.07 5.426-.063.154-20.367 53.469-20.432 53.639-1.474 3.871.468 8.204 4.339 9.679 3.87 1.477 8.204-.468 9.678-4.339l3.232-8.486h22.367l3.194 8.465c1.476 3.922 5.872 5.799 9.665 4.368 3.875-1.462 5.832-5.789 4.369-9.665l-20.18-53.474c-1.302-3.391-4.514-5.615-8.151-5.613zm-5.549 40.918 5.522-14.499 5.472 14.499zm82.855 27.825c3.871 1.477 8.204-.468 9.678-4.34l3.232-8.485h22.368l3.194 8.465c1.476 3.923 5.872 5.799 9.665 4.368 3.875-1.462 5.832-5.789 4.369-9.665l-20.18-53.474c-1.291-3.392-4.529-5.613-8.154-5.612h-.01c-3.555.004-6.722 2.133-8.069 5.423-.065.158-20.367 53.469-20.433 53.643-1.474 3.869.469 8.202 4.34 9.677zm24.145-42.324 5.472 14.499h-10.994zm-50.125 42.815h.06c3.711-.025 7.007-2.403 8.217-5.966l17.708-53.305c1.306-3.931-.822-8.176-4.753-9.481-3.934-1.309-8.176.821-9.482 4.753l-11.88 35.761-12.48-35.955c-1.358-3.913-5.634-5.986-9.545-4.626-3.913 1.358-5.984 5.631-4.626 9.544l18.561 53.47c1.233 3.479 4.532 5.805 8.22 5.805zm191.306-69.234h-.011c-3.622.004-6.834 2.214-8.136 5.594l-20.365 53.471c-1.475 3.871.468 8.204 4.339 9.679 3.872 1.476 8.204-.469 9.678-4.339l3.232-8.486h22.367l3.194 8.465c1.476 3.923 5.872 5.799 9.665 4.368 3.875-1.462 5.832-5.789 4.369-9.665l-20.18-53.474c-1.303-3.391-4.516-5.615-8.152-5.613zm-5.55 40.918 5.522-14.499 5.472 14.499zm176.575-25.671c4.142 0 7.5-3.357 7.5-7.5s-3.358-7.5-7.5-7.5h-22.644c-4.142 0-7.5 3.357-7.5 7.5v53.74c0 4.143 3.358 7.5 7.5 7.5h22.644c4.142 0 7.5-3.357 7.5-7.5s-3.358-7.5-7.5-7.5h-15.144v-11.87h13.475c4.142 0 7.5-3.357 7.5-7.5s-3.358-7.5-7.5-7.5h-13.475v-11.87zm-237.151-15.247c-4.142 0-7.5 3.357-7.5 7.5v54.189c0 3.654 2.634 6.776 6.236 7.393.542.093 14.068.142 20.298.107 4.142-.023 7.481-3.399 7.458-7.542s-3.388-7.436-7.542-7.458c-3.488.02-7.835.037-11.45.043v-46.732c0-4.143-3.358-7.5-7.5-7.5zm-34.563 7.5v54.234c0 4.143 3.358 7.5 7.5 7.5s7.5-3.357 7.5-7.5v-54.234c0-4.143-3.358-7.5-7.5-7.5s-7.5 3.357-7.5 7.5z"></path></g></svg>